<svg width="685" height="685" viewBox="0 0 685 685" fill="none" xmlns="http://www.w3.org/2000/svg">
<path d="M157.773 0.121444C159.396 0.119571 161.019 0.117269 162.642 0.114578C167.063 0.108508 171.485 0.108588 175.907 0.109773C180.691 0.109978 185.475 0.104446 190.26 0.0997153C199.62 0.0914337 208.981 0.0886615 218.342 0.0881029C225.96 0.0876264 233.578 0.0855649 241.197 0.0824023C262.84 0.0736011 284.484 0.0689819 306.128 0.0697328C307.876 0.0697927 307.876 0.0697927 309.659 0.0698538C311.409 0.0699152 311.409 0.0699152 313.194 0.0699777C332.074 0.0703836 350.954 0.0608262 369.834 0.0467155C389.264 0.0323094 408.694 0.0254477 428.124 0.0263092C439.014 0.0266398 449.905 0.0239535 460.795 0.0131312C470.073 0.00397022 479.35 0.00189632 488.628 0.00864062C493.35 0.0118783 498.072 0.0120638 502.795 0.00328737C548.9 -0.0768552 596.105 1.05544 633.269 32.2552C634.126 32.9732 634.983 33.6912 635.866 34.4309C665.032 59.8103 680.476 96.1654 683.43 134.343C684.154 145.237 684.416 156.098 684.409 167.013C684.412 168.614 684.415 170.216 684.418 171.817C684.426 176.162 684.428 180.506 684.429 184.85C684.431 189.558 684.438 194.266 684.445 198.974C684.458 209.241 684.465 219.508 684.469 229.774C684.472 236.199 684.476 242.624 684.48 249.049C684.493 266.881 684.503 284.713 684.506 302.544C684.507 303.683 684.507 304.821 684.507 305.993C684.507 307.134 684.507 308.275 684.508 309.45C684.508 311.761 684.509 314.072 684.509 316.384C684.509 317.53 684.509 318.676 684.51 319.857C684.514 338.42 684.531 356.983 684.554 375.546C684.578 394.66 684.591 413.773 684.592 432.887C684.593 443.596 684.598 454.306 684.617 465.015C684.632 474.135 684.637 483.255 684.629 492.375C684.625 497.017 684.626 501.658 684.64 506.299C684.71 530.524 684.598 554.82 678.456 578.443C678.196 579.475 677.936 580.507 677.668 581.57C675.53 589.785 672.963 597.594 669.269 605.255C668.913 606 668.557 606.744 668.191 607.511C652.919 638.996 627.457 663.129 594.237 674.931C561.241 685.951 525.691 684.41 491.329 684.401C486.659 684.4 481.99 684.406 477.321 684.411C468.206 684.419 459.091 684.422 449.977 684.422C442.563 684.423 435.15 684.425 427.736 684.428C406.664 684.437 385.591 684.441 364.518 684.441C363.386 684.441 362.254 684.441 361.088 684.44C359.388 684.44 359.388 684.44 357.653 684.44C339.267 684.44 320.881 684.45 302.494 684.464C283.563 684.478 264.631 684.485 245.699 684.484C235.091 684.484 224.483 684.486 213.875 684.497C204.85 684.506 195.826 684.508 186.801 684.502C182.205 684.498 177.61 684.498 173.014 684.507C137.604 684.57 137.604 684.57 122.269 682.255C121.237 682.101 120.205 681.947 119.141 681.788C116.813 681.418 114.514 680.986 112.206 680.505C110.978 680.251 110.978 680.251 109.725 679.992C94.9381 676.789 81.5368 671.452 68.2688 664.255C67.2105 663.701 66.1521 663.147 65.0618 662.576C58.0466 658.732 52.132 654.071 46.1633 648.802C44.0302 646.925 41.8868 645.177 39.6438 643.443C15.5038 622.529 5.07872 588.708 1.26878 558.255C1.10005 557.036 0.931319 555.817 0.757474 554.562C0.271341 550.653 0.142388 546.819 0.14015 542.877C0.13752 541.826 0.137522 541.826 0.134839 540.754C0.130207 538.419 0.132633 536.084 0.135068 533.749C0.133199 532.052 0.130897 530.356 0.128202 528.66C0.122093 524.008 0.122216 519.356 0.123395 514.704C0.1236 509.682 0.11808 504.661 0.11334 499.639C0.105036 489.802 0.102286 479.966 0.101728 470.129C0.101252 462.127 0.0991896 454.125 0.0960211 446.124C0.0872136 423.418 0.0826063 400.712 0.0833563 378.006C0.0833963 376.782 0.0834372 375.559 0.0834784 374.298C0.0835192 373.072 0.0835583 371.847 0.0836004 370.584C0.0840064 350.749 0.074457 330.914 0.060346 311.079C0.0459583 290.694 0.0390672 270.308 0.0399298 249.922C0.040261 238.485 0.0375555 227.048 0.0267614 215.611C0.0176246 205.868 0.0154963 196.124 0.0222601 186.381C0.02551 181.416 0.0256355 176.452 0.0169043 171.488C-0.0608855 124.309 -0.0608778 124.309 4.51878 106.443C4.84411 105.138 4.84411 105.138 5.17601 103.807C7.2025 95.9863 9.816 88.5718 13.2688 81.2552C13.7401 80.2509 13.7401 80.2509 14.2209 79.2263C29.9496 46.3606 57.3527 22.4269 91.3508 9.56375C113.067 2.07484 134.912 0.0961128 157.773 0.121444Z" fill="#773AC3"/>
<path d="M502.144 231.818C503.329 231.788 503.329 231.788 504.538 231.757C509.918 231.762 513.016 232.682 517.269 236.255C520.696 241.219 520.933 246.396 521.269 252.255C522.433 252.566 522.433 252.566 523.62 252.884C540.986 257.837 556.761 266.272 566.269 282.255C569.691 288.922 571.792 294.662 571.269 302.255C569.692 306.236 568.859 307.862 565.269 310.255C561.659 310.715 558.029 310.625 554.394 310.63C553.4 310.655 552.406 310.679 551.382 310.704C546.997 310.722 544.103 310.73 540.241 308.533C538.262 306.248 536.929 304.141 535.581 301.443C531.999 295.12 526.693 291.467 520.269 288.255C520.269 306.405 520.269 324.555 520.269 343.255C523.239 343.915 526.209 344.575 529.269 345.255C547.727 351.252 565.384 360.157 574.956 377.943C581.561 392.175 583.014 409.392 577.581 424.275C569.816 441.908 556.932 453.687 539.109 460.89C532.875 463.283 526.984 465.015 520.269 465.255C520.321 466.324 520.321 466.324 520.374 467.415C520.547 473.517 520.46 477.973 517.269 483.255C513.157 486.453 509.897 486.634 504.769 486.568C503.48 486.564 502.191 486.56 500.863 486.556C495.221 486.084 491.938 484.58 488.269 480.255C487.174 476.97 487.169 474.519 487.206 471.068C487.215 469.981 487.224 468.894 487.234 467.775C487.245 466.943 487.257 466.112 487.269 465.255C486.109 465.144 484.948 465.033 483.753 464.919C479.418 464.372 475.582 463.202 471.519 461.63C470.826 461.363 470.132 461.096 469.418 460.82C452.227 453.982 437.439 442.373 429.831 425.13C427.826 419.648 427.495 415.156 429.019 409.443C430.49 406.868 431.757 405.819 434.269 404.255C437.892 403.62 441.533 403.746 445.206 403.755C446.196 403.727 447.185 403.698 448.204 403.669C455.463 403.65 455.463 403.65 459.312 406.54C460.888 408.727 462.358 410.828 463.644 413.193C468.875 421.808 477.614 426.841 487.269 429.255C487.269 410.115 487.269 390.975 487.269 371.255C484.299 370.595 481.329 369.935 478.269 369.255C461.215 363.447 443.596 354.088 435.269 337.255C431.609 328.477 430.088 320.965 430.081 311.505C430.069 310.649 430.057 309.793 430.044 308.911C430.009 293.593 435.546 283.03 446.269 272.255C447.009 271.48 447.749 270.706 448.511 269.908C456.946 261.629 471.809 252.471 484.007 252.193C484.753 252.213 485.5 252.234 486.269 252.255C486.217 251.168 486.217 251.168 486.163 250.06C486.004 244.378 485.888 240.085 489.269 235.255C492.988 231.358 497.094 231.773 502.144 231.818Z" fill="#FCFBFC"/>
<path d="M468.269 85.2552C473.507 93.1131 470.651 103.214 469.468 112.032C469.269 113.569 469.07 115.105 468.873 116.642C468.458 119.853 468.036 123.062 467.609 126.272C467.065 130.363 466.533 134.456 466.005 138.55C465.596 141.72 465.182 144.89 464.767 148.06C464.57 149.568 464.373 151.076 464.178 152.584C461.455 173.494 461.455 173.494 458.206 178.318C454.752 180.596 452.667 181.12 448.577 180.845C444.049 179.688 441.43 176.543 438.269 173.255C437.141 172.133 436.011 171.013 434.878 169.896C431.652 166.704 428.456 163.486 425.269 160.255C422.374 161.566 420.306 162.969 418.064 165.213C417.454 165.819 416.844 166.424 416.216 167.048C415.559 167.711 414.902 168.373 414.225 169.056C413.523 169.756 412.822 170.455 412.099 171.176C409.78 173.492 407.468 175.815 405.156 178.138C403.542 179.753 401.927 181.368 400.313 182.982C396.926 186.37 393.543 189.762 390.163 193.156C385.844 197.491 381.518 201.821 377.191 206.148C373.854 209.485 370.52 212.824 367.186 216.165C365.594 217.761 364 219.356 362.406 220.951C360.169 223.191 357.934 225.434 355.701 227.678C355.05 228.328 354.399 228.979 353.728 229.649C349.937 233.466 346.341 237.401 342.823 241.471C340.989 243.576 339.083 245.594 337.129 247.588C336.397 248.335 335.666 249.083 334.913 249.853C331.613 253.198 328.311 256.54 325 259.874C323.261 261.63 321.527 263.391 319.799 265.158C317.283 267.728 314.75 270.282 312.214 272.833C311.451 273.619 310.689 274.404 309.903 275.213C304.4 280.695 299.013 284.416 291.265 285.786C290.421 285.776 289.576 285.766 288.706 285.755C287.859 285.765 287.012 285.776 286.14 285.786C277.214 284.135 271.84 278.302 265.769 271.943C260.755 266.764 255.756 261.723 250.279 257.036C245.619 252.908 241.342 248.364 236.98 243.927C232.25 239.148 227.399 234.603 222.269 230.255C215.785 235.637 209.932 241.53 204.029 247.534C202.896 248.678 202.896 248.678 201.741 249.845C201.074 250.524 200.406 251.204 199.718 251.903C197.805 253.741 195.874 255.447 193.854 257.161C188.06 262.199 182.751 267.729 177.371 273.201C174.706 275.908 172.031 278.606 169.357 281.304C164.395 286.312 159.437 291.323 154.495 296.351C151.041 299.865 147.574 303.366 144.099 306.86C142.784 308.187 141.473 309.519 140.167 310.855C138.339 312.724 136.497 314.576 134.65 316.426C134.121 316.975 133.592 317.523 133.046 318.089C128.254 322.83 122.991 325.144 116.269 325.755C111.426 325.526 107.805 323.494 104.269 320.255C101.573 316.635 100.446 313.159 99.5813 308.755C101.174 300.645 110.326 294.054 116.015 288.38C116.861 287.532 117.708 286.683 118.58 285.809C120.88 283.506 123.182 281.205 125.485 278.905C127.909 276.483 130.331 274.059 132.753 271.636C136.818 267.568 140.886 263.503 144.955 259.439C149.642 254.757 154.324 250.073 159.005 245.386C163.044 241.343 167.084 237.303 171.126 233.263C173.532 230.859 175.936 228.455 178.34 226.048C181.022 223.363 183.707 220.682 186.394 218.001C187.177 217.216 187.96 216.431 188.767 215.622C192.923 211.481 197.163 207.506 201.619 203.688C204.116 201.519 206.362 199.14 208.628 196.736C212.376 193.354 215.593 192.939 220.581 192.88C221.671 192.852 222.76 192.823 223.882 192.794C231.144 193.783 235.993 198.487 241.081 203.38C241.714 203.978 242.346 204.577 242.998 205.193C249.089 210.994 255.027 216.953 260.926 222.949C264.941 227.013 269.048 230.867 273.378 234.592C276.304 237.166 279.037 239.916 281.769 242.693C282.305 243.233 282.841 243.774 283.394 244.331C284.688 245.637 285.979 246.946 287.269 248.255C287.867 247.946 288.465 247.636 289.081 247.318C291.269 246.255 291.269 246.255 294.269 245.255C294.972 243.941 295.635 242.604 296.269 241.255C297.713 239.567 297.713 239.567 299.423 237.867C300.072 237.217 300.721 236.566 301.39 235.896C302.101 235.194 302.812 234.492 303.545 233.768C304.295 233.019 305.045 232.271 305.817 231.5C308.3 229.023 310.79 226.553 313.281 224.083C315.01 222.36 316.739 220.636 318.468 218.912C323.026 214.366 327.59 209.827 332.156 205.289C339.447 198.041 346.731 190.787 354.012 183.529C356.551 181 359.093 178.476 361.635 175.951C363.205 174.388 364.775 172.824 366.346 171.26C367.047 170.566 367.748 169.871 368.47 169.156C372.411 165.224 376.162 161.186 379.789 156.963C381.645 154.821 383.599 152.796 385.601 150.79C386.336 150.054 387.072 149.317 387.829 148.558C388.572 147.819 389.316 147.079 390.081 146.318C390.844 145.551 391.606 144.785 392.392 143.995C393.121 143.268 393.85 142.54 394.601 141.79C395.587 140.806 395.587 140.806 396.592 139.802C398.269 138.255 398.269 138.255 400.269 137.255C398.888 134.103 397.328 132.133 394.784 129.829C394.096 129.197 393.408 128.565 392.698 127.913C391.979 127.263 391.26 126.613 390.519 125.943C376.646 113.353 376.646 113.353 375.706 108.13C376.368 104.746 377.044 102.911 379.269 100.255C385.026 97.3199 390.871 96.1259 397.187 94.9153C398.239 94.7071 399.292 94.4989 400.376 94.2843C403.735 93.6215 407.095 92.9693 410.456 92.3177C412.664 91.8841 414.872 91.4499 417.079 91.0149C420.343 90.372 423.608 89.731 426.874 89.0969C431.932 88.1145 436.984 87.1138 442.025 86.0476C442.923 85.8601 443.82 85.6726 444.744 85.4794C446.391 85.1336 448.037 84.7811 449.68 84.4197C462.885 81.6661 462.885 81.6661 468.269 85.2552Z" fill="#FCFBFD"/>
<path d="M316.135 301.981C317.908 301.966 317.908 301.966 319.716 301.952C320.989 301.953 322.262 301.953 323.573 301.954C324.885 301.95 326.197 301.946 327.549 301.941C330.325 301.934 333.1 301.934 335.876 301.939C339.422 301.945 342.968 301.928 346.514 301.905C349.909 301.887 353.304 301.891 356.698 301.892C357.967 301.883 359.236 301.873 360.544 301.864C361.732 301.87 362.919 301.876 364.143 301.883C365.184 301.882 366.224 301.882 367.296 301.881C371.566 302.418 374.777 303.848 377.92 306.813C379.924 310.442 379.682 314.015 379.65 318.055C379.654 318.953 379.659 319.851 379.664 320.777C379.676 323.793 379.666 326.809 379.657 329.825C379.661 331.985 379.666 334.145 379.673 336.305C379.687 342.177 379.681 348.049 379.672 353.92C379.664 360.06 379.671 366.2 379.676 372.339C379.681 382.652 379.674 392.964 379.66 403.276C379.644 415.204 379.649 427.132 379.665 439.059C379.679 449.293 379.681 459.527 379.673 469.76C379.668 475.875 379.668 481.99 379.678 488.106C379.686 493.855 379.68 499.605 379.663 505.354C379.659 507.466 379.66 509.578 379.667 511.69C379.675 514.57 379.665 517.449 379.65 520.329C379.656 521.167 379.663 522.006 379.67 522.87C379.623 527.496 379.235 530.478 376.269 534.255C373.012 536.599 369.954 536.524 366.019 536.562C364.754 536.578 363.489 536.594 362.186 536.61C360.809 536.616 359.431 536.622 358.054 536.626C356.637 536.635 355.22 536.644 353.802 536.654C350.834 536.67 347.866 536.678 344.898 536.681C341.1 536.686 337.303 536.724 333.506 536.769C330.58 536.799 327.654 536.806 324.727 536.807C323.327 536.812 321.927 536.824 320.528 536.845C318.568 536.872 316.608 536.864 314.648 536.855C313.534 536.86 312.42 536.865 311.273 536.87C307.313 536.06 305.822 534.309 303.269 531.255C301.624 527.966 302.121 524.312 302.122 520.696C302.118 519.8 302.114 518.903 302.11 517.979C302.099 514.957 302.096 511.935 302.092 508.912C302.086 506.753 302.079 504.593 302.072 502.433C302.054 496.553 302.044 490.673 302.036 484.793C302.031 481.122 302.024 477.451 302.018 473.78C301.999 462.303 301.985 450.826 301.977 439.349C301.967 426.085 301.94 412.822 301.9 399.558C301.87 389.316 301.855 379.074 301.852 368.832C301.849 362.71 301.84 356.588 301.815 350.466C301.792 344.708 301.788 338.95 301.798 333.192C301.799 331.077 301.792 328.962 301.779 326.847C301.761 323.963 301.768 321.079 301.781 318.195C301.77 317.355 301.759 316.515 301.748 315.649C301.792 311.65 301.966 309.727 304.182 306.277C308.043 302.536 310.806 302.004 316.135 301.981Z" fill="#FCFCFC"/>
<path d="M205.616 344.608C206.878 344.592 208.139 344.577 209.439 344.56C210.808 344.569 212.177 344.58 213.546 344.591C214.96 344.588 216.373 344.583 217.786 344.577C220.745 344.569 223.702 344.58 226.66 344.603C230.441 344.632 234.22 344.615 238.001 344.585C240.919 344.567 243.837 344.573 246.755 344.586C248.148 344.589 249.541 344.585 250.935 344.574C263.164 344.494 263.164 344.494 267.107 347.672C270.498 351.724 270.399 353.88 270.416 359.137C270.42 359.853 270.423 360.569 270.427 361.307C270.438 363.719 270.442 366.131 270.446 368.543C270.452 370.268 270.459 371.992 270.466 373.717C270.483 378.411 270.494 383.106 270.502 387.8C270.507 390.732 270.513 393.664 270.519 396.595C270.538 405.765 270.553 414.935 270.561 424.105C270.571 434.696 270.597 445.286 270.638 455.877C270.668 464.059 270.683 472.24 270.686 480.422C270.688 485.311 270.697 490.199 270.722 495.087C270.746 499.687 270.75 504.287 270.74 508.886C270.739 510.574 270.745 512.261 270.759 513.949C270.777 516.255 270.77 518.559 270.757 520.865C270.759 522.155 270.761 523.445 270.764 524.774C270.045 529.83 267.889 532.998 263.882 536.106C260.873 537.429 258.738 537.636 255.456 537.643C254.312 537.653 253.167 537.662 251.988 537.672C250.76 537.666 249.533 537.66 248.269 537.654C246.366 537.658 246.366 537.658 244.425 537.662C241.745 537.664 239.066 537.66 236.386 537.646C232.959 537.629 229.534 537.639 226.107 537.657C222.828 537.67 219.548 537.661 216.269 537.654C214.428 537.663 214.428 537.663 212.55 537.672C211.405 537.663 210.261 537.653 209.081 537.643C208.077 537.641 207.073 537.639 206.038 537.636C201.665 537.035 199.209 535.211 196.152 532.104C193.749 528.469 193.763 526.231 193.754 521.892C193.747 521.16 193.74 520.429 193.733 519.675C193.715 517.228 193.725 514.782 193.735 512.335C193.728 510.579 193.72 508.823 193.709 507.067C193.687 502.3 193.69 497.534 193.699 492.768C193.704 488.789 193.696 484.81 193.689 480.831C193.672 471.446 193.676 462.061 193.692 452.676C193.709 442.991 193.693 433.307 193.661 423.622C193.634 415.308 193.627 406.994 193.636 398.679C193.641 393.713 193.638 388.747 193.618 383.781C193.6 379.112 193.605 374.444 193.63 369.775C193.635 368.061 193.632 366.348 193.619 364.634C193.603 362.295 193.618 359.958 193.641 357.618C193.641 356.309 193.642 355.001 193.642 353.652C194.898 346.841 199.087 344.632 205.616 344.608Z" fill="#FBFAFC"/>
<path d="M108.113 404.759C109.355 404.758 110.597 404.756 111.878 404.755C115.17 404.757 118.462 404.778 121.754 404.806C123.767 404.818 125.78 404.816 127.793 404.809C131.67 404.796 135.547 404.805 139.425 404.822C140.622 404.819 141.819 404.816 143.052 404.813C150.147 404.893 154.946 405.248 160.387 410.173C163.207 414.793 162.843 419.044 162.818 424.36C162.828 425.481 162.839 426.602 162.849 427.757C162.877 431.462 162.875 435.167 162.87 438.872C162.878 441.449 162.887 444.026 162.896 446.603C162.911 452.005 162.911 457.406 162.9 462.808C162.888 469.042 162.913 475.274 162.955 481.507C162.995 487.516 163.001 493.524 162.994 499.533C162.995 502.083 163.005 504.634 163.025 507.185C163.05 510.755 163.037 514.322 163.013 517.891C163.036 519.469 163.036 519.469 163.06 521.078C162.972 527.162 162.115 530.591 157.848 535.026C154.667 537.502 151.549 537.39 147.683 537.416C146.538 537.426 145.394 537.435 144.214 537.445C142.977 537.45 141.739 537.454 140.464 537.458C139.193 537.464 137.922 537.47 136.612 537.476C133.92 537.485 131.229 537.492 128.537 537.495C125.095 537.501 121.653 537.525 118.211 537.553C114.92 537.576 111.63 537.578 108.339 537.583C106.489 537.602 106.489 537.602 104.601 537.621C103.45 537.618 102.299 537.615 101.113 537.612C100.103 537.615 99.0926 537.619 98.0518 537.623C93.6828 537.046 91.2457 535.11 87.9876 532.258C85.3682 527.682 85.7193 523.396 85.7671 518.21C85.7589 516.539 85.7589 516.539 85.7507 514.833C85.7382 511.151 85.7547 507.469 85.7727 503.786C85.7725 501.227 85.771 498.668 85.7683 496.109C85.7669 490.746 85.779 485.383 85.8022 480.019C85.8288 473.825 85.8306 467.631 85.8188 461.436C85.808 455.469 85.8143 449.503 85.8284 443.536C85.8329 441 85.8332 438.464 85.8293 435.928C85.8264 432.385 85.8429 428.843 85.8647 425.3C85.8602 424.251 85.8557 423.201 85.8511 422.12C85.9418 413.255 85.9418 413.255 89.2688 409.255C94.7689 403.993 100.824 404.691 108.113 404.759Z" fill="#FBFBFC"/>
<path d="M520.269 381.255C529.559 382.582 536.361 386.102 542.152 393.611C545.935 399.18 546.033 404.835 544.909 411.333C543.065 417.665 538.624 421.648 533.269 425.255C524.741 429.255 524.741 429.255 520.269 429.255C520.269 413.415 520.269 397.575 520.269 381.255Z" fill="#7435C0"/>
<path d="M487.269 288.255C487.269 302.775 487.269 317.295 487.269 332.255C479.829 331.015 474.345 328.08 469.55 322.118C466.196 316.844 464.747 312.615 465.269 306.255C467.72 298.309 473.573 293.458 480.519 289.318C483.269 288.255 483.269 288.255 487.269 288.255Z" fill="#7739C2"/>
<path d="M332.269 251.255C332.599 251.915 332.929 252.575 333.269 253.255C330.599 256.676 327.928 259.639 324.613 262.443C320.121 266.326 315.94 270.471 311.769 274.693C311.042 275.424 310.315 276.156 309.566 276.909C307.798 278.689 306.032 280.471 304.269 282.255C303.609 281.925 302.949 281.595 302.269 281.255C312.169 271.355 322.069 261.455 332.269 251.255Z" fill="#611CBA"/>
<path d="M579.269 417.255C580.511 420.843 580.127 423.59 579.269 427.255C578.279 428.74 578.279 428.74 577.269 430.255C576.609 430.255 575.949 430.255 575.269 430.255C574.939 431.575 574.609 432.895 574.269 434.255C573.609 433.925 572.949 433.595 572.269 433.255C572.607 432.519 572.944 431.783 573.292 431.025C573.738 430.049 574.184 429.073 574.644 428.068C575.085 427.105 575.526 426.142 575.98 425.15C577.142 422.54 578.228 419.915 579.269 417.255Z" fill="#6B29BD"/>
<path d="M50.2688 33.2552C50.9288 33.5852 51.5888 33.9152 52.2688 34.2552C50.1076 37.4969 48.5484 38.303 45.2688 40.2552C43.899 41.551 42.5537 42.8751 41.2688 44.2552C40.6088 43.9252 39.9488 43.5952 39.2688 43.2552C40.5365 41.9604 41.8081 40.6695 43.0813 39.3802C43.789 38.6609 44.4967 37.9416 45.2258 37.2005C47.2688 35.2552 47.2688 35.2552 50.2688 33.2552Z" fill="#601DB8"/>
<path d="M362.269 220.255C362.929 220.585 363.589 220.915 364.269 221.255C361.394 225.236 358.448 227.691 354.269 230.255C355.92 225.963 359.006 223.376 362.269 220.255Z" fill="#6F31C0"/>
<path d="M127.269 1.25516C130.644 1.13016 130.644 1.13016 134.269 1.25516C134.929 1.91516 135.589 2.57516 136.269 3.25516C135.269 4.25516 135.269 4.25516 133.421 4.35281C131.37 4.32026 129.32 4.28771 127.269 4.25516C127.269 3.26516 127.269 2.27516 127.269 1.25516Z" fill="#824BC7"/>
</svg>
